<svg id="visual" viewBox="0 0 900 10" width="900" height="10" xmlns="http://www.w3.org/2000/svg" xmlns:xlink="http://www.w3.org/1999/xlink" version="1.1"><rect x="0" y="0" width="900" height="450" fill="#001220"></rect><defs><linearGradient id="grad1_0" x1="50%" y1="0%" x2="100%" y2="100%"><stop offset="10%" stop-color="#001220" stop-opacity="1"></stop><stop offset="90%" stop-color="#001220" stop-opacity="1"></stop></linearGradient></defs><defs><linearGradient id="grad2_0" x1="0%" y1="0%" x2="50%" y2="100%"><stop offset="10%" stop-color="#001220" stop-opacity="1"></stop><stop offset="90%" stop-color="#001220" stop-opacity="1"></stop></linearGradient></defs><g transform="translate(900, 0)"><path d="M0 292.5C-10.6 257.7 -21.3 223 -34.3 216.3C-47.3 209.6 -62.6 231 -78.5 241.6C-94.3 252.1 -110.6 251.9 -127.1 249.5C-143.6 247.1 -160.2 242.6 -162.8 224.1C-165.4 205.6 -153.9 173.1 -158.4 158.4C-162.9 143.7 -183.4 146.8 -192.5 139.9C-201.7 133 -199.5 116 -204.9 104.4C-210.3 92.8 -223.3 86.6 -240.6 78.2C-257.9 69.8 -279.5 59.2 -288.9 45.8C-298.3 32.4 -295.4 16.2 -292.5 0L0 0Z" fill="#FBAE3C"></path></g><g transform="translate(0, 450)"><path d="M0 -292.5C15.4 -292.3 30.8 -292.2 45.8 -288.9C60.7 -285.6 75.1 -279.3 87.8 -270.1C100.4 -260.9 111.3 -248.9 120.8 -237C130.2 -225.1 138.3 -213.4 148.1 -203.9C157.9 -194.3 169.4 -186.9 173.9 -173.9C178.5 -161 176.1 -142.5 179.6 -130.5C183.1 -118.5 192.7 -112.9 208.5 -106.2C224.3 -99.6 246.5 -91.9 243.5 -79.1C240.5 -66.3 212.3 -48.3 216.3 -34.3C220.3 -20.2 256.4 -10.1 292.5 0L0 0Z" fill="#FBAE3C"></path></g></svg>