<svg xmlns="http://www.w3.org/2000/svg" version="1.1" xmlns:xlink="http://www.w3.org/1999/xlink" xmlns:svgjs="http://svgjs.dev/svgjs" viewBox="0 0 2400 800" opacity="1"><defs><linearGradient x1="50%" y1="0%" x2="50%" y2="100%" id="sssurf-grad"><stop stop-color="hsl(44, 40%, 46%)" stop-opacity="1" offset="0%"></stop><stop stop-color="hsl(44, 40%, 46%)" stop-opacity="1" offset="100%"></stop></linearGradient></defs><g fill="url(#sssurf-grad)" transform="matrix(1,0,0,1,-10.4755859375,338.505126953125)"><path d="M-10,10C242.08333333333331,33.75,697.9166666666666,161.5,1200,124C1702.0833333333335,86.5,2097.9166666666665,-227.5,2400,-170C2702.0833333333335,-112.5,3254.1666666666665,177.08333333333331,2650,400C2045.8333333333335,622.9166666666667,156.25,795.8333333333334,-500,900" transform="matrix(1,0,0,1,0,50)" opacity="0.05"></path><path d="M-10,10C242.08333333333331,33.75,697.9166666666666,161.5,1200,124C1702.0833333333335,86.5,2097.9166666666665,-227.5,2400,-170C2702.0833333333335,-112.5,3254.1666666666665,177.08333333333331,2650,400C2045.8333333333335,622.9166666666667,156.25,795.8333333333334,-500,900" transform="matrix(1,0,0,1,0,100)" opacity="0.53"></path><path d="M-10,10C242.08333333333331,33.75,697.9166666666666,161.5,1200,124C1702.0833333333335,86.5,2097.9166666666665,-227.5,2400,-170C2702.0833333333335,-112.5,3254.1666666666665,177.08333333333331,2650,400C2045.8333333333335,622.9166666666667,156.25,795.8333333333334,-500,900" transform="matrix(1,0,0,1,0,150)" opacity="1.00"></path></g></svg>