<svg xmlns="http://www.w3.org/2000/svg" version="1.1" xmlns:xlink="http://www.w3.org/1999/xlink" xmlns:svgjs="http://svgjs.dev/svgjs" viewBox="0 0 2400 800" opacity="1"><defs><linearGradient x1="50%" y1="0%" x2="50%" y2="100%" id="sssurf-grad"><stop stop-color="rgb(249,140,145)" stop-opacity="1" offset="0%"></stop><stop stop-color="rgb(249,140,145)" stop-opacity="1" offset="100%"></stop></linearGradient></defs><g fill="rgb(249,140,145)" transform="matrix(1,0,0,1,11.510009765625,337.5005760192871)"><path d="M-10,10C8.75,24.583333333333332,44.583333333333336,90.83333333333333,80,80C115.41666666666666,69.16666666666667,126.66666666666666,-43.666666666666664,160,-42C193.33333333333334,-40.333333333333336,206.66666666666666,87.79166666666667,240,88C273.3333333333333,88.20833333333333,286.6666666666667,-38.5,320,-41C353.3333333333333,-43.5,366.6666666666667,76.83333333333333,400,76C433.3333333333333,75.16666666666667,446.6666666666667,-44.583333333333336,480,-45C513.3333333333334,-45.416666666666664,526.6666666666666,69.83333333333333,560,74C593.3333333333334,78.16666666666667,606.6666666666666,-21.666666666666668,640,-25C673.3333333333334,-28.333333333333332,686.6666666666666,52.583333333333336,720,58C753.3333333333334,63.416666666666664,766.6666666666666,4.958333333333333,800,1C833.3333333333334,-2.958333333333333,846.6666666666666,37.75,880,39C913.3333333333334,40.25,926.6666666666666,-1.541666666666666,960,7C993.3333333333334,15.541666666666666,1006.6666666666666,86.66666666666667,1040,80C1073.3333333333333,73.33333333333333,1086.6666666666667,-20.625,1120,-25C1153.3333333333333,-29.375,1166.6666666666667,62.125,1200,59C1233.3333333333333,55.875,1246.6666666666667,-46.25,1280,-40C1313.3333333333333,-33.75,1326.6666666666667,85.45833333333333,1360,89C1393.3333333333333,92.54166666666667,1406.6666666666667,-26.75,1440,-23C1473.3333333333333,-19.25,1486.6666666666667,97.83333333333333,1520,107C1553.3333333333333,116.16666666666667,1566.6666666666667,28.5,1600,21C1633.3333333333333,13.5,1646.6666666666667,69.33333333333333,1680,71C1713.3333333333333,72.66666666666667,1726.6666666666667,20.25,1760,29C1793.3333333333333,37.75,1806.6666666666667,118,1840,113C1873.3333333333333,108,1886.6666666666667,14.375,1920,5C1953.3333333333333,-4.375,1966.6666666666667,60.5,2000,68C2033.3333333333333,75.5,2046.6666666666667,32.458333333333336,2080,41C2113.3333333333335,49.541666666666664,2126.6666666666665,109.83333333333333,2160,109C2193.3333333333335,108.16666666666667,2206.6666666666665,37.833333333333336,2240,37C2273.3333333333335,36.166666666666664,2286.6666666666665,116.875,2320,105C2353.3333333333335,93.125,2331.25,-81.45833333333333,2400,-20C2468.75,41.45833333333333,3254.1666666666665,208.33333333333331,2650,400C2045.8333333333335,591.6666666666667,156.25,795.8333333333334,-500,900" transform="matrix(1,0,0,1,0,35)" opacity="NaN"></path></g></svg>