<svg id="visual" viewBox="0 0 900 450" width="900" height="450" xmlns="http://www.w3.org/2000/svg" xmlns:xlink="http://www.w3.org/1999/xlink" version="1.1"><path d="M0 391L15 391.3C30 391.7 60 392.3 90 390.3C120 388.3 150 383.7 180 387C210 390.3 240 401.7 270 402C300 402.3 330 391.7 360 391C390 390.3 420 399.7 450 399.2C480 398.7 510 388.3 540 385.5C570 382.7 600 387.3 630 389.7C660 392 690 392 720 394C750 396 780 400 810 400.8C840 401.7 870 399.3 885 398.2L900 397L900 451L885 451C870 451 840 451 810 451C780 451 750 451 720 451C690 451 660 451 630 451C600 451 570 451 540 451C510 451 480 451 450 451C420 451 390 451 360 451C330 451 300 451 270 451C240 451 210 451 180 451C150 451 120 451 90 451C60 451 30 451 15 451L0 451Z" fill="#9baffd"></path><path d="M0 416L15 416.3C30 416.7 60 417.3 90 418.7C120 420 150 422 180 420.3C210 418.7 240 413.3 270 411.7C300 410 330 412 360 414.8C390 417.7 420 421.3 450 420.7C480 420 510 415 540 412.2C570 409.3 600 408.7 630 411.3C660 414 690 420 720 422.7C750 425.3 780 424.7 810 424C840 423.3 870 422.7 885 422.3L900 422L900 451L885 451C870 451 840 451 810 451C780 451 750 451 720 451C690 451 660 451 630 451C600 451 570 451 540 451C510 451 480 451 450 451C420 451 390 451 360 451C330 451 300 451 270 451C240 451 210 451 180 451C150 451 120 451 90 451C60 451 30 451 15 451L0 451Z" fill="#4a61c0"></path></svg>