<svg xmlns="http://www.w3.org/2000/svg" version="1.1" xmlns:xlink="http://www.w3.org/1999/xlink" viewBox="0 0 700 700" style="overflow: hidden; display: block;" width="700" height="700"><defs><linearGradient id="two-7" x1="350" y1="-350" x2="350" y2="350" spreadMethod="pad" gradientUnits="userSpaceOnUse"><stop offset="0%" stop-color="hsl(1.4, 100%, 67%)" stop-opacity="1"></stop><stop offset="100%" stop-color="hsl(167, 52%, 78%)" stop-opacity="1"></stop></linearGradient></defs><g id="two-0" transform="matrix(1 0 0 1 0 0)" opacity="1"><path transform="matrix(1 0 0 1 350 350)" id="two-431" d="M 319.488015 75.72005 C 324.797597 102.069516 330.062713 136.659268 312.326888 156.856459 C 290.195739 182.058955 245.70236 170.979197 213.086851 178.801098 C 190.858888 184.131843 162.598104 180.403457 146.026735 196.147945 C 125.365787 215.777949 143.181457 261.754431 120.151314 278.542056 C 101.184904 292.367458 72.15068 274.025546 49.030064 278.063311 C 25.942542 282.095296 5.797049 301.708915 -17.623539 302.584475 C -40.676099 303.446277 -61.9146 285.90235 -84.848712 283.414432 C -111.701263 280.501439 -147.257339 307.370666 -166.541871 288.45898 C -194.173708 261.361376 -133.275002 197.658193 -161.600161 171.286163 C -190.662555 144.227732 -260.073034 218.568691 -281.15487 184.918466 C -303.424431 149.372432 -215.644552 119.431171 -213.101227 77.562503 C -211.996123 59.37009 -233.566655 45.614324 -236.807501 27.678827 C -240.035341 9.815302 -229.037557 -9.229311 -232.0768 -27.125888 C -236.230264 -51.583552 -255.089584 -72.144745 -262.904632 -95.689461 C -272.533979 -124.700189 -303.468695 -163.435947 -282.975977 -186.116228 C -256.066088 -215.898702 -194.772368 -148.473772 -162.176661 -171.897218 C -140.300374 -187.617633 -165.927808 -234.376556 -145.3655 -251.780432 C -127.937674 -266.531292 -96.259459 -243.674057 -76.235854 -254.645483 C -47.59126 -270.340562 -51.27892 -328.003893 -19.557437 -335.788216 C 6.507892 -342.184542 29.406636 -311.770687 52.588968 -298.246861 C 72.785061 -286.465111 89.073359 -264.25062 111.993907 -259.63106 C 142.867736 -253.408543 175.472289 -284.667457 205.913442 -276.589754 C 231.67235 -269.754506 258.582506 -249.724177 267.816378 -224.724625 C 279.235078 -193.809923 241.390475 -157.645611 251.337694 -126.226535 C 258.898613 -102.344775 299.155757 -96.643714 304.668735 -72.207817 C 310.221962 -47.59352 277.618062 -25.161531 279.515258 -0.000001 C 281.639723 28.175705 313.906508 48.021124 319.488015 75.72005 Z " fill="hsl(167, 52%, 78%)" stroke="undefined" stroke-width="1" stroke-opacity="1" fill-opacity="1" visibility="visible" stroke-linecap="butt" stroke-linejoin="miter" stroke-miterlimit="4"></path></g></svg>