<svg xmlns="http://www.w3.org/2000/svg" version="1.1" xmlns:xlink="http://www.w3.org/1999/xlink" xmlns:svgjs="http://svgjs.dev/svgjs" viewBox="0 0 2400 800"><defs><linearGradient x1="50%" y1="0%" x2="50%" y2="100%" id="oooscillate-grad"><stop stop-color="hsl(206, 75%, 49%)" stop-opacity="1" offset="0%"></stop><stop stop-color="hsl(331, 90%, 56%)" stop-opacity="1" offset="100%"></stop></linearGradient></defs><g stroke-width="2" stroke="url(#oooscillate-grad)" fill="none" stroke-linecap="round"><path d="M 0 572 Q 600 -100 1200 400 Q 1800 900 2400 572" opacity="0.05"></path><path d="M 0 550 Q 600 -100 1200 400 Q 1800 900 2400 550" opacity="0.09"></path><path d="M 0 528 Q 600 -100 1200 400 Q 1800 900 2400 528" opacity="0.13"></path><path d="M 0 506 Q 600 -100 1200 400 Q 1800 900 2400 506" opacity="0.16"></path><path d="M 0 484 Q 600 -100 1200 400 Q 1800 900 2400 484" opacity="0.20"></path><path d="M 0 462 Q 600 -100 1200 400 Q 1800 900 2400 462" opacity="0.24"></path><path d="M 0 440 Q 600 -100 1200 400 Q 1800 900 2400 440" opacity="0.28"></path><path d="M 0 418 Q 600 -100 1200 400 Q 1800 900 2400 418" opacity="0.32"></path><path d="M 0 396 Q 600 -100 1200 400 Q 1800 900 2400 396" opacity="0.35"></path><path d="M 0 374 Q 600 -100 1200 400 Q 1800 900 2400 374" opacity="0.39"></path><path d="M 0 352 Q 600 -100 1200 400 Q 1800 900 2400 352" opacity="0.43"></path><path d="M 0 330 Q 600 -100 1200 400 Q 1800 900 2400 330" opacity="0.47"></path><path d="M 0 308 Q 600 -100 1200 400 Q 1800 900 2400 308" opacity="0.51"></path><path d="M 0 286 Q 600 -100 1200 400 Q 1800 900 2400 286" opacity="0.54"></path><path d="M 0 264 Q 600 -100 1200 400 Q 1800 900 2400 264" opacity="0.58"></path><path d="M 0 242 Q 600 -100 1200 400 Q 1800 900 2400 242" opacity="0.62"></path><path d="M 0 220 Q 600 -100 1200 400 Q 1800 900 2400 220" opacity="0.66"></path><path d="M 0 198 Q 600 -100 1200 400 Q 1800 900 2400 198" opacity="0.70"></path><path d="M 0 176 Q 600 -100 1200 400 Q 1800 900 2400 176" opacity="0.73"></path><path d="M 0 154 Q 600 -100 1200 400 Q 1800 900 2400 154" opacity="0.77"></path><path d="M 0 132 Q 600 -100 1200 400 Q 1800 900 2400 132" opacity="0.81"></path><path d="M 0 110 Q 600 -100 1200 400 Q 1800 900 2400 110" opacity="0.85"></path><path d="M 0 88 Q 600 -100 1200 400 Q 1800 900 2400 88" opacity="0.89"></path><path d="M 0 66 Q 600 -100 1200 400 Q 1800 900 2400 66" opacity="0.92"></path><path d="M 0 44 Q 600 -100 1200 400 Q 1800 900 2400 44" opacity="0.96"></path></g></svg>