<?xml version="1.0" standalone="no"?>
<svg xmlns:xlink="http://www.w3.org/1999/xlink" id="wave" style="transform:rotate(0deg); transition: 0.3s" viewBox="0 0 1440 190" version="1.1" xmlns="http://www.w3.org/2000/svg"><defs><linearGradient id="sw-gradient-0" x1="0" x2="0" y1="1" y2="0"><stop stop-color="rgba(243, 106, 62, 1)" offset="0%"/><stop stop-color="rgba(255, 179, 11, 1)" offset="100%"/></linearGradient></defs><path style="transform:translate(0, 0px); opacity:1" fill="url(#sw-gradient-0)" d="M0,38L720,114L1440,19L2160,19L2880,19L3600,38L4320,133L5040,114L5760,95L6480,133L7200,0L7920,76L8640,171L9360,95L10080,0L10800,95L11520,95L12240,57L12960,38L13680,38L14400,152L15120,114L15840,76L16560,19L17280,0L17280,190L16560,190L15840,190L15120,190L14400,190L13680,190L12960,190L12240,190L11520,190L10800,190L10080,190L9360,190L8640,190L7920,190L7200,190L6480,190L5760,190L5040,190L4320,190L3600,190L2880,190L2160,190L1440,190L720,190L0,190Z"/></svg>